<svg width="16" height="16" viewBox="0 0 16 16" id="brackets" xmlns="http://www.w3.org/2000/svg" fill="currentColor">
<path d="M3.64539 16C2.0192 15.4495 1.2061 14.1823 1.2061 12.1982V10.5712C1.2061 9.42121 0.804062 8.84614 0 8.84614V7.15379C0.785999 7.15379 1.18803 6.61147 1.2061 5.52681V3.79355C1.2061 2.78521 1.40937 1.97036 1.81592 1.349C2.22247 0.72764 2.83229 0.27798 3.64539 0L4.02484 1.3163C3.68154 1.46891 3.42179 1.73599 3.24562 2.11752C3.06945 2.49361 2.97684 3.01686 2.96781 3.68726V5.40418C2.96781 6.636 2.56352 7.4999 1.75494 7.99589C2.56352 8.49731 2.96781 9.36669 2.96781 10.604V12.3373C2.9904 13.6127 3.34274 14.392 4.02484 14.6755L3.64539 16ZM11.9752 14.6755C12.6618 14.3811 13.0141 13.5908 13.0322 12.3045V10.5712C13.0322 9.33944 13.4455 8.48373 14.2722 8.00407C13.4455 7.52442 13.0322 6.65507 13.0322 5.396V3.68726C13.0141 2.4173 12.6618 1.62698 11.9752 1.3163L12.3546 0C13.1632 0.272529 13.7708 0.719463 14.1773 1.34082C14.5839 1.95673 14.7894 2.76613 14.7939 3.76902V5.52681C14.812 6.61147 15.214 7.15379 16 7.15379V8.84614C15.1959 8.84614 14.7939 9.41572 14.7939 10.5549V12.3291C14.7578 14.2368 13.9447 15.4604 12.3546 16L11.9752 14.6755Z"/>
</svg>
