<svg width="12" height="12" id="check" viewBox="0 0 12 12" xmlns="http://www.w3.org/2000/svg" fill="currentColor">
<path d="M10.7143 0H1.28571C0.575625 0 0 0.575625 0 1.28571V10.7143C0 11.4244 0.575625 12 1.28571 12H10.7143C11.4244 12 12 11.4244 12 10.7143V1.28571C12 0.575625 11.4244 0 10.7143 0ZM10.7143 10.7143H1.28571V1.28571H10.7143V10.7143ZM9.75364 4.23954L5.13072 8.82536C5.0047 8.95037 4.80118 8.94956 4.67617 8.82354L2.24454 6.37221C2.11953 6.24619 2.12033 6.04267 2.24638 5.91763L2.85493 5.31399C2.98096 5.18898 3.18447 5.18979 3.30948 5.31584L4.91105 6.9304L8.69727 3.17462C8.82329 3.04961 9.02681 3.05041 9.15182 3.17644L9.75546 3.78496C9.88047 3.91101 9.87967 4.11453 9.75364 4.23954Z"/>
</svg>
