<svg width="16" height="16" id="close" viewBox="0 0 16 16" xmlns="http://www.w3.org/2000/svg" fill="currentColor">
<path d="M14.5 0H1.5C0.671875 0 0 0.767857 0 1.71429V14.2857C0 15.2321 0.671875 16 1.5 16H14.5C15.3281 16 16 15.2321 16 14.2857V1.71429C16 0.767857 15.3281 0 14.5 0ZM14.5 14.0714C14.5 14.1893 14.4156 14.2857 14.3125 14.2857H1.6875C1.58438 14.2857 1.5 14.1893 1.5 14.0714V1.92857C1.5 1.81071 1.58438 1.71429 1.6875 1.71429H14.3125C14.4156 1.71429 14.5 1.81071 14.5 1.92857V14.0714ZM11.1406 5.80714L9.22188 8L11.1406 10.1929C11.2844 10.3571 11.2844 10.625 11.1406 10.7929L10.4438 11.5893C10.3 11.7536 10.0656 11.7536 9.91875 11.5893L8 9.39643L6.08125 11.5893C5.9375 11.7536 5.70312 11.7536 5.55625 11.5893L4.85938 10.7929C4.71562 10.6286 4.71562 10.3607 4.85938 10.1929L6.77812 8L4.85938 5.80714C4.71562 5.64286 4.71562 5.375 4.85938 5.20714L5.55625 4.41071C5.7 4.24643 5.93438 4.24643 6.08125 4.41071L8 6.60357L9.91875 4.41071C10.0625 4.24643 10.2969 4.24643 10.4438 4.41071L11.1406 5.20714C11.2875 5.37143 11.2875 5.63929 11.1406 5.80714Z"/>
</svg>
