<svg width="16" height="16" id="cross" viewBox="0 0 16 16" xmlns="http://www.w3.org/2000/svg" fill="currentColor">
<path d="M10.8357 7.99996L15.3031 3.53255C15.8513 2.98434 15.8513 2.0955 15.3031 1.54684L14.3103 0.553983C13.7621 0.00576872 12.8732 0.00576872 12.3246 0.553983L7.85714 5.02139L3.38973 0.553983C2.84152 0.00576872 1.95268 0.00576872 1.40402 0.553983L0.411161 1.54684C-0.137054 2.09505 -0.137054 2.98389 0.411161 3.53255L4.87857 7.99996L0.411161 12.4674C-0.137054 13.0156 -0.137054 13.9044 0.411161 14.4531L1.40402 15.4459C1.95223 15.9942 2.84152 15.9942 3.38973 15.4459L7.85714 10.9785L12.3246 15.4459C12.8728 15.9942 13.7621 15.9942 14.3103 15.4459L15.3031 14.4531C15.8513 13.9049 15.8513 13.016 15.3031 12.4674L10.8357 7.99996Z"/>
</svg>
