<svg width="14" height="12" viewBox="0 0 14 12" id="edit" xmlns="http://www.w3.org/2000/svg" fill="currentColor">
<path d="M9.77812 8.09124L10.5559 7.3427C10.6774 7.22574 10.8889 7.30761 10.8889 7.47603V10.8772C10.8889 11.4971 10.3663 12 9.72222 12H1.16667C0.522569 12 0 11.4971 0 10.8772V2.64328C0 2.02339 0.522569 1.52047 1.16667 1.52047H7.81424C7.9868 1.52047 8.07431 1.72164 7.95278 1.84094L7.175 2.58948C7.13854 2.62456 7.08993 2.64328 7.03646 2.64328H1.16667V10.8772H9.72222V8.22223C9.72222 8.17311 9.74167 8.12633 9.77812 8.09124ZM13.5844 3.37076L7.20174 9.51346L5.00451 9.74738C4.36771 9.81522 3.82569 9.29826 3.89618 8.68071L4.13924 6.56609L10.5219 0.423392C11.0785 -0.112281 11.9778 -0.112281 12.5319 0.423392L13.5819 1.43392C14.1385 1.96959 14.1385 2.83743 13.5844 3.37076ZM11.183 4.09357L9.77083 2.73451L5.25486 7.08305L5.07743 8.61054L6.66458 8.43978L11.183 4.09357ZM12.758 2.22924L11.708 1.21871C11.6083 1.12281 11.4455 1.12281 11.3483 1.21871L10.5972 1.94152L12.0094 3.30059L12.7604 2.57778C12.8576 2.47953 12.8576 2.32515 12.758 2.22924Z"/>
</svg>
