<svg width="13" id="plus" height="13" viewBox="0 0 13 13" xmlns="http://www.w3.org/2000/svg" fill="currentColor">
<path d="M11.375 4.8125H7.4375V0.875C7.4375 0.391836 7.04566 0 6.5625 0H5.6875C5.20434 0 4.8125 0.391836 4.8125 0.875V4.8125H0.875C0.391836 4.8125 0 5.20434 0 5.6875V6.5625C0 7.04566 0.391836 7.4375 0.875 7.4375H4.8125V11.375C4.8125 11.8582 5.20434 12.25 5.6875 12.25H6.5625C7.04566 12.25 7.4375 11.8582 7.4375 11.375V7.4375H11.375C11.8582 7.4375 12.25 7.04566 12.25 6.5625V5.6875C12.25 5.20434 11.8582 4.8125 11.375 4.8125Z"/>
</svg>
