<svg width="11" height="12" viewBox="0 0 11 12" id="trash" xmlns="http://www.w3.org/2000/svg" fill="currentColor">
<path d="M6.78125 9.75H7.34375C7.41834 9.75 7.48988 9.72037 7.54262 9.66762C7.59537 9.61488 7.625 9.54334 7.625 9.46875V4.40625C7.625 4.33166 7.59537 4.26012 7.54262 4.20738C7.48988 4.15463 7.41834 4.125 7.34375 4.125H6.78125C6.70666 4.125 6.63512 4.15463 6.58238 4.20738C6.52963 4.26012 6.5 4.33166 6.5 4.40625V9.46875C6.5 9.54334 6.52963 9.61488 6.58238 9.66762C6.63512 9.72037 6.70666 9.75 6.78125 9.75ZM10.625 1.875H8.69352L7.89664 0.546094C7.79664 0.379457 7.65517 0.241568 7.48602 0.145865C7.31688 0.0501615 7.12583 -9.24232e-05 6.93148 1.27604e-07H4.56852C4.37425 -1.14555e-05 4.1833 0.0502809 4.01424 0.14598C3.84519 0.24168 3.70379 0.379525 3.60383 0.546094L2.80648 1.875H0.875C0.775544 1.875 0.680161 1.91451 0.609835 1.98484C0.539509 2.05516 0.5 2.15054 0.5 2.25L0.5 2.625C0.5 2.72446 0.539509 2.81984 0.609835 2.89016C0.680161 2.96049 0.775544 3 0.875 3H1.25V10.875C1.25 11.1734 1.36853 11.4595 1.5795 11.6705C1.79048 11.8815 2.07663 12 2.375 12H9.125C9.42337 12 9.70952 11.8815 9.9205 11.6705C10.1315 11.4595 10.25 11.1734 10.25 10.875V3H10.625C10.7245 3 10.8198 2.96049 10.8902 2.89016C10.9605 2.81984 11 2.72446 11 2.625V2.25C11 2.15054 10.9605 2.05516 10.8902 1.98484C10.8198 1.91451 10.7245 1.875 10.625 1.875ZM4.5275 1.1932C4.54003 1.17234 4.55777 1.15509 4.57896 1.14314C4.60016 1.13118 4.6241 1.12493 4.64844 1.125H6.85156C6.87586 1.12497 6.89975 1.13124 6.9209 1.14319C6.94206 1.15515 6.95975 1.17238 6.97227 1.1932L7.38148 1.875H4.11852L4.5275 1.1932ZM9.125 10.875H2.375V3H9.125V10.875ZM4.15625 9.75H4.71875C4.79334 9.75 4.86488 9.72037 4.91762 9.66762C4.97037 9.61488 5 9.54334 5 9.46875V4.40625C5 4.33166 4.97037 4.26012 4.91762 4.20738C4.86488 4.15463 4.79334 4.125 4.71875 4.125H4.15625C4.08166 4.125 4.01012 4.15463 3.95738 4.20738C3.90463 4.26012 3.875 4.33166 3.875 4.40625V9.46875C3.875 9.54334 3.90463 9.61488 3.95738 9.66762C4.01012 9.72037 4.08166 9.75 4.15625 9.75Z"/>
</svg>
